<svg width="120" height="31" viewBox="0 0 120 31" fill="none" xmlns="http://www.w3.org/2000/svg">
<path d="M14.94 8.70266V21.2667H12.42V13.0947L9.054 21.2667H7.146L3.762 13.0947V21.2667H1.242V8.70266H4.104L8.1 18.0447L12.096 8.70266H14.94ZM23.2635 21.3927C22.0875 21.3927 21.0075 21.1167 20.0235 20.5647C19.0395 20.0127 18.2595 19.2507 17.6835 18.2787C17.1075 17.2947 16.8195 16.1847 16.8195 14.9487C16.8195 13.7247 17.1075 12.6267 17.6835 11.6547C18.2595 10.6707 19.0395 9.90266 20.0235 9.35066C21.0075 8.79866 22.0875 8.52266 23.2635 8.52266C24.4515 8.52266 25.5315 8.79866 26.5035 9.35066C27.4875 9.90266 28.2615 10.6707 28.8255 11.6547C29.4015 12.6267 29.6895 13.7247 29.6895 14.9487C29.6895 16.1847 29.4015 17.2947 28.8255 18.2787C28.2615 19.2507 27.4875 20.0127 26.5035 20.5647C25.5195 21.1167 24.4395 21.3927 23.2635 21.3927ZM23.2635 19.1427C24.0195 19.1427 24.6855 18.9747 25.2615 18.6387C25.8375 18.2907 26.2875 17.7987 26.6115 17.1627C26.9355 16.5267 27.0975 15.7887 27.0975 14.9487C27.0975 14.1087 26.9355 13.3767 26.6115 12.7527C26.2875 12.1167 25.8375 11.6307 25.2615 11.2947C24.6855 10.9587 24.0195 10.7907 23.2635 10.7907C22.5075 10.7907 21.8355 10.9587 21.2475 11.2947C20.6715 11.6307 20.2215 12.1167 19.8975 12.7527C19.5735 13.3767 19.4115 14.1087 19.4115 14.9487C19.4115 15.7887 19.5735 16.5267 19.8975 17.1627C20.2215 17.7987 20.6715 18.2907 21.2475 18.6387C21.8355 18.9747 22.5075 19.1427 23.2635 19.1427ZM42.8503 8.70266L38.2423 21.2667H35.1823L30.5743 8.70266H33.2743L36.7303 18.6927L40.1683 8.70266H42.8503ZM46.8811 8.70266V21.2667H44.3611V8.70266H46.8811ZM51.8909 10.7367V13.8867H56.1209V15.8847H51.8909V19.2147H56.6609V21.2667H49.3709V8.68466H56.6609V10.7367H51.8909Z" fill="#999999"/>
<rect x="65.4221" width="54.5779" height="31" rx="5" fill="#F5C51C"/>
<path d="M84.0535 8.9877V11.0217H78.8155V14.2437H82.8295V16.2417H78.8155V21.5517H76.2955V8.9877H84.0535ZM88.3604 19.5537H92.5004V21.5517H85.8404V8.9877H88.3604V19.5537ZM96.6222 8.9877V21.5517H94.1022V8.9877H96.6222ZM106.636 21.5517L103.918 17.3217L101.452 21.5517H98.6079L102.568 15.2157L98.5539 8.9877H101.452L104.17 13.1997L106.618 8.9877H109.462L105.52 15.3057L109.534 21.5517H106.636Z" fill="black"/>
</svg>
